HIERARCHY
ROOT reference
{
  OFFSET 0 0 0
  CHANNELS 6 Xposition Yposition Zposition Zrotation Xrotation Yrotation
  JOINT Hips
  {
    OFFSET 350.331 86.7696 215.823
    CHANNELS 3 Zrotation Xrotation Yrotation
    JOINT RightUpLeg
    {
      OFFSET -9.29271 -1.56052 -0.0234997
      CHANNELS 3 Zrotation Xrotation Yrotation
      JOINT RightLeg
      {
        OFFSET -0.0199852 -41.8973 0.0465042
        CHANNELS 3 Zrotation Xrotation Yrotation
        JOINT RightFoot
        {
          OFFSET -0.344404 -43.5008 0.46033
          CHANNELS 3 Zrotation Xrotation Yrotation
          End Site
          {
            OFFSET 0 -7.69 17.5
          }
        }
      }
    }
    JOINT LeftUpLeg
    {
      OFFSET 9.27671 -1.61046 0.00923455
      CHANNELS 3 Zrotation Xrotation Yrotation
      JOINT LeftLeg
      {
        OFFSET 0.0572944 -41.8832 0.025786
        CHANNELS 3 Zrotation Xrotation Yrotation
        JOINT LeftFoot
        {
          OFFSET 0.630082 -40.4663 0.064708
          CHANNELS 3 Zrotation Xrotation Yrotation
          End Site
          {
            OFFSET 0 -7.69 17.5
          }
        }
      }
    }
    JOINT Spine
    {
      OFFSET 0.0336257 14.3009 0.0467062
      CHANNELS 3 Zrotation Xrotation Yrotation
      JOINT Spine1
      {
        OFFSET 0.0295985 9.72711 0.0239471
        CHANNELS 3 Zrotation Xrotation Yrotation
        JOINT Spine2
        {
          OFFSET 0.0515174 10.1206 0.00128176
          CHANNELS 3 Zrotation Xrotation Yrotation
          JOINT Spine3
          {
            OFFSET 0.0546141 9.71668 0.0122483
            CHANNELS 3 Zrotation Xrotation Yrotation
            JOINT Neck
            {
              OFFSET 0.0872189 10.3831 0.0511468
              CHANNELS 3 Zrotation Xrotation Yrotation
              JOINT Head
              {
                OFFSET 0.0544 9.47189 0.0313815
                CHANNELS 3 Zrotation Xrotation Yrotation
                End Site
                {
                  OFFSET 0 15.95 0
                }
              }
            }
            JOINT RightShoulder
            {
              OFFSET -3.15364 6.93551 0.0260198
              CHANNELS 3 Zrotation Xrotation Yrotation
              JOINT RightArm
              {
                OFFSET -12.7567 0.0626665 0.0664987
                CHANNELS 3 Zrotation Xrotation Yrotation
                JOINT RightForeArm
                {
                  OFFSET -26.5087 -0.073346 0.274032
                  CHANNELS 3 Zrotation Xrotation Yrotation
                  JOINT RightHand
                  {
                    OFFSET -26.0005 -0.196673 0.105827
                    CHANNELS 3 Zrotation Xrotation Yrotation
                    JOINT RightHandThumb1
                    {
                      OFFSET -2.48905 0.190105 3.12053
                      CHANNELS 3 Zrotation Xrotation Yrotation
                      JOINT RightHandThumb2
                      {
                        OFFSET -3.68274 0 0
                        CHANNELS 3 Zrotation Xrotation Yrotation
                        JOINT RightHandThumb3
                        {
                          OFFSET -2.55832 0 0
                          CHANNELS 3 Zrotation Xrotation Yrotation
                          End Site
                          {
                            OFFSET -2.194 0 0
                          }
                        }
                      }
                    }
                    JOINT RightInHandIndex
                    {
                      OFFSET -3.22368 0.508421 1.97842
                      CHANNELS 3 Zrotation Xrotation Yrotation
                      JOINT RightHandIndex1
                      {
                        OFFSET -5.21684 -0.091368 0.999158
                        CHANNELS 3 Zrotation Xrotation Yrotation
                        JOINT RightHandIndex2
                        {
                          OFFSET -3.61937 0 0
                          CHANNELS 3 Zrotation Xrotation Yrotation
                          JOINT RightHandIndex3
                          {
                            OFFSET -2.0521 0 0
                            CHANNELS 3 Zrotation Xrotation Yrotation
                            End Site
                            {
                              OFFSET -1.805 0 0
                            }
                          }
                        }
                      }
                    }
                    JOINT RightInHandMiddle
                    {
                      OFFSET -3.38211 0.517263 0.756737
                      CHANNELS 3 Zrotation Xrotation Yrotation
                      JOINT RightHandMiddle1
                      {
                        OFFSET -5.17411 -0.084 0.313895
                        CHANNELS 3 Zrotation Xrotation Yrotation
                        JOINT RightHandMiddle2
                        {
                          OFFSET -3.94947 0 0
                          CHANNELS 3 Zrotation Xrotation Yrotation
                          JOINT RightHandMiddle3
                          {
                            OFFSET -2.47579 0 0
                            CHANNELS 3 Zrotation Xrotation Yrotation
                            End Site
                            {
                              OFFSET -1.975 0 0
                            }
                          }
                        }
                      }
                    }
                    JOINT RightInHandRing
                    {
                      OFFSET -3.36516 0.537895 -0.128947
                      CHANNELS 3 Zrotation Xrotation Yrotation
                      JOINT RightHandRing1
                      {
                        OFFSET -4.63474 -0.022105 -0.478947
                        CHANNELS 3 Zrotation Xrotation Yrotation
                        JOINT RightHandRing2
                        {
                          OFFSET -3.44238 0 0
                          CHANNELS 3 Zrotation Xrotation Yrotation
                          JOINT RightHandRing3
                          {
                            OFFSET -2.3881 0 0
                            CHANNELS 3 Zrotation Xrotation Yrotation
                            End Site
                            {
                              OFFSET -1.857 0 0
                            }
                          }
                        }
                      }
                    }
                    JOINT RightInHandPinky
                    {
                      OFFSET -3.16105 0.469368 -1.20179
                      CHANNELS 3 Zrotation Xrotation Yrotation
                      JOINT RightHandPinky1
                      {
                        OFFSET -4.14105 -0.022105 -1.09053
                        CHANNELS 3 Zrotation Xrotation Yrotation
                        JOINT RightHandPinky2
                        {
                          OFFSET -2.75653 0 0
                          CHANNELS 3 Zrotation Xrotation Yrotation
                          JOINT RightHandPinky3
                          {
                            OFFSET -1.74189 0 0
                            CHANNELS 3 Zrotation Xrotation Yrotation
                            End Site
                            {
                              OFFSET -1.645 0 0
                            }
                          }
                        }
                      }
                    }
                  }
                }
              }
            }
            JOINT LeftShoulder
            {
              OFFSET 3.27252 6.91581 -0.0198585
              CHANNELS 3 Zrotation Xrotation Yrotation
              JOINT LeftArm
              {
                OFFSET 12.8319 -0.0466028 -0.0574599
                CHANNELS 3 Zrotation Xrotation Yrotation
                JOINT LeftForeArm
                {
                  OFFSET 26.4942 -0.039105 -0.0936
                  CHANNELS 3 Zrotation Xrotation Yrotation
                  JOINT LeftHand
                  {
                    OFFSET 26.0008 0.022674 -0.016655
                    CHANNELS 3 Zrotation Xrotation Yrotation
                    JOINT LeftHandThumb1
                    {
                      OFFSET 2.48905 0.190105 3.12053
                      CHANNELS 3 Zrotation Xrotation Yrotation
                      JOINT LeftHandThumb2
                      {
                        OFFSET 3.68274 0 0
                        CHANNELS 3 Zrotation Xrotation Yrotation
                        JOINT LeftHandThumb3
                        {
                          OFFSET 2.55832 0 0
                          CHANNELS 3 Zrotation Xrotation Yrotation
                          End Site
                          {
                            OFFSET 2.194 0 0
                          }
                        }
                      }
                    }
                    JOINT LeftInHandIndex
                    {
                      OFFSET 3.22368 0.508421 1.97842
                      CHANNELS 3 Zrotation Xrotation Yrotation
                      JOINT LeftHandIndex1
                      {
                        OFFSET 5.21684 -0.091368 0.999158
                        CHANNELS 3 Zrotation Xrotation Yrotation
                        JOINT LeftHandIndex2
                        {
                          OFFSET 3.61937 0 0
                          CHANNELS 3 Zrotation Xrotation Yrotation
                          JOINT LeftHandIndex3
                          {
                            OFFSET 2.0521 0 0
                            CHANNELS 3 Zrotation Xrotation Yrotation
                            End Site
                            {
                              OFFSET 1.805 0 0
                            }
                          }
                        }
                      }
                    }
                    JOINT LeftInHandMiddle
                    {
                      OFFSET 3.38211 0.517263 0.756737
                      CHANNELS 3 Zrotation Xrotation Yrotation
                      JOINT LeftHandMiddle1
                      {
                        OFFSET 5.17411 -0.084 0.313895
                        CHANNELS 3 Zrotation Xrotation Yrotation
                        JOINT LeftHandMiddle2
                        {
                          OFFSET 3.94947 0 0
                          CHANNELS 3 Zrotation Xrotation Yrotation
                          JOINT LeftHandMiddle3
                          {
                            OFFSET 2.47579 0 0
                            CHANNELS 3 Zrotation Xrotation Yrotation
                            End Site
                            {
                              OFFSET 1.975 0 0
                            }
                          }
                        }
                      }
                    }
                    JOINT LeftInHandRing
                    {
                      OFFSET 3.36516 0.537895 -0.128947
                      CHANNELS 3 Zrotation Xrotation Yrotation
                      JOINT LeftHandRing1
                      {
                        OFFSET 4.63474 -0.022105 -0.478947
                        CHANNELS 3 Zrotation Xrotation Yrotation
                        JOINT LeftHandRing2
                        {
                          OFFSET 3.44238 0 0
                          CHANNELS 3 Zrotation Xrotation Yrotation
                          JOINT LeftHandRing3
                          {
                            OFFSET 2.3881 0 0
                            CHANNELS 3 Zrotation Xrotation Yrotation
                            End Site
                            {
                              OFFSET 1.857 0 0
                            }
                          }
                        }
                      }
                    }
                    JOINT LeftInHandPinky
                    {
                      OFFSET 3.16105 0.469368 -1.20179
                      CHANNELS 3 Zrotation Xrotation Yrotation
                      JOINT LeftHandPinky1
                      {
                        OFFSET 4.14105 -0.022105 -1.09053
                        CHANNELS 3 Zrotation Xrotation Yrotation
                        JOINT LeftHandPinky2
                        {
                          OFFSET 2.75653 0 0
                          CHANNELS 3 Zrotation Xrotation Yrotation
                          JOINT LeftHandPinky3
                          {
                            OFFSET 1.74189 0 0
                            CHANNELS 3 Zrotation Xrotation Yrotation
                            End Site
                            {
                              OFFSET 1.645 0 0
                            }
                          }
                        }
                      }
                    }
                  }
                }
              }
            }
          }
        }
      }
    }
  }
}
MOTION
Frames: 2
Frame Time: 0.00833333
3.150000000000000000e+03 0.000000000000000000e+00 0.000000000000000000e+00 0.000000000000000000e+00 0.000000000000000000e+00 0.000000000000000000e+00 2.702130000000000010e+01 1.246870000000000189e+01 -7.151949999999999363e+01 -3.121550000000000225e+01 -5.516810000000000969e+01 -3.308890000000000242e+01 1.516920000000000046e+00 2.568130000000000024e+01 -1.271169999999999867e+01 1.178810000000000002e+01 8.091749999999999332e+00 2.941799999999999926e+01 2.290459999999999141e+01 -4.884069999999999823e+01 9.836920000000002773e+00 1.573499999999999233e+00 3.429959999999999809e+01 1.365040000000002252e+00 -1.461029999999999873e+01 -1.239830000000000076e+01 -1.863970000000000127e+01 -1.181440000000000090e+01 9.059269999999999712e+00 1.995339999999999847e+01 -2.682830000000000048e+00 2.902240000000000375e+00 4.759540000000001214e+00 -4.403750000000000497e+00 4.835650000000000226e+00 7.533710000000000129e+00 1.564450000000000562e-01 -2.620069999999999899e-01 -5.985749999999998572e-01 1.567950000000000177e-01 -2.607319999999999638e-01 -5.997939999999992722e-01 2.489300000000000068e+00 -4.919609999999998706e+00 -1.085650000000000048e+01 5.225580000000000780e+00 -1.445780000000000065e+01 1.808109999999999928e+01 6.846519999999999584e+01 2.135490000000004329e+00 5.355769999999998987e+01 8.771520000000009532e+00 -5.043429999999999325e+01 -5.066510000000008063e+00 2.395940000000000225e+01 -2.815749999999999886e+01 -2.026589999999999492e+01 2.818400000000000105e+01 1.072940000000000005e+01 1.915919999999999845e+01 -2.804090000000019104e-16 -1.590280000000000274e-15 -1.000000000000000000e+01 -1.194200000000000354e-15 2.385420000000000017e-15 -1.000000000000000000e+01 7.888609052210118054e-31 3.180549999999999587e-15 -1.113189999999999773e-14 1.998179999999999978e+01 8.718970000000000331e-01 2.396399999999999864e+00 2.400000000000000000e+01 1.311979999999999992e-14 0.000000000000000000e+00 2.000000000000000000e+01 3.180550000000001560e-15 -3.180550000000000771e-15 7.888609052210118054e-31 3.180549999999999587e-15 -1.113189999999999773e-14 2.000000000000000000e+01 -9.541659999999997356e-15 3.180550000000002348e-15 2.400000000000000000e+01 -3.975689999999998936e-15 -6.361110000000000530e-15 2.000000000000000000e+01 3.180549999999999982e-15 1.590279999999999485e-14 7.888609052210118054e-31 3.180549999999999587e-15 -1.113189999999999773e-14 1.997479999999999833e+01 -1.025649999999999951e+00 -2.819380000000000219e+00 2.400000000000000000e+01 -9.541660000000002090e-15 1.272220000000000308e-14 2.000000000000000000e+01 -8.746530000000000547e-15 3.180550000000000771e-15 7.888609052210118054e-31 3.180549999999999587e-15 -1.113189999999999773e-14 1.978150000000000119e+01 -3.009479999999999933e+00 -8.305149999999999366e+00 2.400000000000000000e+01 -9.541659999999998934e-15 0.000000000000000000e+00 2.000000000000000000e+01 5.565969999999999210e-15 -9.541659999999997356e-15 1.393060000000000187e+01 -1.339469999999999850e+01 -3.162380000000000280e+01 -2.771099999999999852e+01 3.358809999999999718e+01 -7.461279999999999291e+01 2.127550000000000097e+01 -7.601680000000000348e+01 2.553649999999999665e+01 -2.514949999999999619e+01 -2.177590000000000003e+01 9.196839999999999904e+00 -2.818400000000000105e+01 1.072940000000000005e+01 -1.915919999999999845e+01 2.243270000000000655e-15 -1.272219999999999835e-14 1.000000000000000000e+01 -1.547169999999999461e-15 -9.541660000000003667e-15 1.000000000000000000e+01 1.590280000000000116e-14 0.000000000000000000e+00 3.180549999999999982e-15 -1.998179999999999978e+01 8.718970000000000331e-01 -2.396399999999999864e+00 -2.400000000000000000e+01 -7.951389999999999226e-16 -9.541660000000003667e-15 -2.000000000000000000e+01 7.951390000000003171e-16 -2.226390000000000270e-14 1.590280000000000116e-14 0.000000000000000000e+00 3.180549999999999982e-15 -2.000000000000000000e+01 0.000000000000000000e+00 -6.361109999999999741e-15 -2.400000000000000000e+01 8.746530000000000547e-15 0.000000000000000000e+00 -2.000000000000000000e+01 4.770829999999999467e-15 -1.908329999999999831e-14 1.590280000000000116e-14 0.000000000000000000e+00 3.180549999999999982e-15 -1.997479999999999833e+01 -1.025649999999999951e+00 2.819380000000000219e+00 -2.400000000000000000e+01 6.162319999999999522e-15 -1.590280000000000116e-14 -2.000000000000000000e+01 3.180550000000000771e-15 6.361109999999999741e-15 1.590280000000000116e-14 0.000000000000000000e+00 3.180549999999999982e-15 -1.978150000000000119e+01 -3.009479999999999933e+00 8.305149999999999366e+00 -2.400000000000000000e+01 5.963539999999995926e-16 -1.272219999999999993e-14 -2.000000000000000000e+01 -3.180549999999999982e-15 -2.544439999999999986e-14
3.150000000000000000e+03 0.000000000000000000e+00 0.000000000000000000e+00 0.000000000000000000e+00 0.000000000000000000e+00 0.000000000000000000e+00 2.703239999999999910e+01 1.242870000000000097e+01 -7.162840000000001339e+01 -3.106770000000000209e+01 -5.522390000000000043e+01 -3.290540000000000020e+01 1.500879999999999992e+00 2.562079999999999558e+01 -1.265680000000000049e+01 1.176050000000000217e+01 8.138670000000001181e+00 2.937350000000000705e+01 2.298850000000000193e+01 -4.878679999999999950e+01 9.970700000000000784e+00 1.502240000000000464e+00 3.434859999999999047e+01 1.441229999999999123e+00 -1.458899999999999864e+01 -1.243919999999999959e+01 -1.867669999999999675e+01 -1.182310000000000016e+01 9.020860000000002543e+00 1.999149999999999849e+01 -2.682770000000000543e+00 2.894899999999999807e+00 4.770480000000000054e+00 -4.403699999999999726e+00 4.824799999999999756e+00 7.549859999999998905e+00 1.564449999999999452e-01 -2.620069999999999899e-01 -5.985750000000003013e-01 1.567950000000000177e-01 -2.607319999999999638e-01 -5.997939999999992722e-01 2.465370000000000061e+00 -4.870779999999999887e+00 -1.082869999999999777e+01 5.333120000000000083e+00 -1.424990000000000023e+01 1.807490000000000308e+01 6.836820000000001585e+01 2.019730000000002690e+00 5.334729999999998995e+01 1.124019999999999442e+01 -5.335499999999999687e+01 -1.986299999999999955e+00 2.222679999999999723e+01 -2.613890000000000313e+01 -2.182789999999999964e+01 2.818400000000000105e+01 1.072940000000000005e+01 1.915919999999999845e+01 1.972820000000000372e-14 1.987850000000000145e-15 -1.000000000000000000e+01 1.614810000000000063e-14 0.000000000000000000e+00 -1.000000000000000000e+01 0.000000000000000000e+00 3.180549999999999193e-15 -3.180550000000000771e-15 1.998179999999999978e+01 8.718970000000000331e-01 2.396399999999999864e+00 2.400000000000000000e+01 1.391490000000000055e-14 3.816669999999999756e-14 2.000000000000000000e+01 9.541660000000000512e-15 2.862499999999999162e-14 0.000000000000000000e+00 3.180549999999999193e-15 -3.180550000000000771e-15 2.000000000000000000e+01 -6.361109999999999741e-15 2.544439999999999986e-14 2.400000000000000000e+01 7.951390000000000804e-15 2.226389999999999639e-14 2.000000000000000000e+01 -7.951389999999999226e-16 2.862500000000000425e-14 0.000000000000000000e+00 3.180549999999999193e-15 -3.180550000000000771e-15 1.997479999999999833e+01 -1.025649999999999951e+00 -2.819380000000000219e+00 2.400000000000000000e+01 -1.113190000000000089e-14 2.862499999999999793e-14 2.000000000000000000e+01 3.975690000000000513e-15 3.180549999999999509e-14 0.000000000000000000e+00 3.180549999999999193e-15 -3.180550000000000771e-15 1.978150000000000119e+01 -3.009479999999999933e+00 -8.305149999999999366e+00 2.400000000000000000e+01 -3.180549999999998404e-15 2.226389999999999324e-14 2.000000000000000000e+01 1.987850000000000934e-15 2.544439999999999986e-14 1.392659999999999876e+01 -1.337219999999999942e+01 -3.166079999999999117e+01 -2.752949999999999520e+01 3.352799999999999869e+01 -7.476130000000000564e+01 1.959970000000000212e+01 -7.420569999999997890e+01 2.397409999999999286e+01 -2.581080000000000041e+01 -2.362600000000000477e+01 8.337540000000000617e+00 -2.818400000000000105e+01 1.072940000000000005e+01 -1.915919999999999845e+01 2.736449999999999727e-15 -6.361109999999999741e-15 1.000000000000000000e+01 1.024970000000000087e-14 -3.180550000000001560e-15 1.000000000000000000e+01 9.541659999999998934e-15 3.180549999999999982e-15 6.361110000000001319e-15 -1.998179999999999978e+01 8.718970000000000331e-01 -2.396399999999999864e+00 -2.400000000000000000e+01 -2.385420000000000805e-15 -1.590280000000000116e-14 -2.000000000000000000e+01 7.951389999999999226e-16 -1.908330000000000147e-14 9.541659999999998934e-15 3.180549999999999982e-15 6.361110000000001319e-15 -2.000000000000000000e+01 1.590279999999999880e-15 -3.180549999999999587e-15 -2.400000000000000000e+01 1.192710000000000087e-14 1.908329999999999831e-14 -2.000000000000000000e+01 0.000000000000000000e+00 -9.541660000000000512e-15 9.541659999999998934e-15 3.180549999999999982e-15 6.361110000000001319e-15 -1.997479999999999833e+01 -1.025649999999999951e+00 2.819380000000000219e+00 -2.400000000000000000e+01 3.578119999999999853e-15 -6.361109999999998952e-15 -2.000000000000000000e+01 1.590279999999999880e-15 9.541660000000000512e-15 9.541659999999998934e-15 3.180549999999999982e-15 6.361110000000001319e-15 -1.978150000000000119e+01 -3.009479999999999933e+00 8.305149999999999366e+00 -2.400000000000000000e+01 -6.659290000000001758e-15 -9.541660000000000512e-15 -2.000000000000000000e+01 -7.951389999999999226e-15 9.541660000000000512e-15
